<svg width="749" height="250" viewBox="0 0 749 250" fill="none" xmlns="http://www.w3.org/2000/svg">
<path d="M126.709 66.3822L128.052 66.8672C128.481 67.0383 128.938 67.181 129.395 67.3807L130.709 67.9227C134.224 69.3777 137.652 71.0609 140.91 73.0864C141.367 73.3431 141.624 72.9723 141.167 72.687L138.824 71.2606L136.424 69.9482L135.824 69.6059C135.624 69.5203 135.424 69.4062 135.224 69.3206L133.995 68.7215L132.767 68.0939C132.338 67.8942 131.938 67.723 131.509 67.5518L130.252 66.9813C129.824 66.8101 129.424 66.6104 128.995 66.4392L126.423 65.4407C125.566 65.0984 124.681 64.8416 123.823 64.5278C122.966 64.1855 122.08 63.9572 121.195 63.7005C120.309 63.4152 119.423 63.1299 118.509 62.9302C117.623 62.702 116.737 62.4452 115.823 62.2455C114.928 62.0553 114.023 61.8651 113.109 61.675C112.68 61.5608 112.194 61.5038 111.766 61.4182L110.394 61.1614C109.937 61.1044 109.48 60.9903 109.023 60.9332L107.623 60.762C106.709 60.6479 105.794 60.4768 104.851 60.4197C103.937 60.3436 103.013 60.258 102.08 60.1629C101.146 60.1059 100.223 60.0583 99.3083 60.0203C98.5083 59.9347 97.7369 59.9632 96.9654 59.9347L95.7654 59.9062C95.3939 59.9062 94.9939 59.8777 94.5939 59.9062C93.051 59.9632 91.451 59.9062 89.9081 60.0203C89.1366 60.0774 88.3366 60.0774 87.5651 60.1344C86.7651 60.2105 85.9746 60.2771 85.1936 60.3341C84.8222 60.3626 84.4222 60.3912 84.0222 60.4482L82.8507 60.5909C82.0697 60.6669 81.2887 60.7525 80.5078 60.8476C76.6791 60.3056 73.5647 59.6209 70.5932 59.2215C69.8503 59.1074 69.1074 59.0123 68.3645 58.9362C67.9931 58.9077 67.5931 58.8506 67.2216 58.8221C66.8597 58.8221 66.4883 58.8126 66.1073 58.7936C65.3454 58.7745 64.5739 58.7841 63.793 58.8221C63.3929 58.8506 62.9644 58.8506 62.5644 58.9077C62.1643 58.9457 61.7548 59.0028 61.3357 59.0789C60.4976 59.212 59.6119 59.3927 58.6785 59.6209C57.7642 59.8491 56.8213 60.1915 55.8213 60.5623C55.326 60.7335 54.8117 60.9332 54.2784 61.1614C53.7641 61.3897 53.2403 61.6464 52.7069 61.9317C51.6212 62.4738 50.4211 63.0443 49.2782 63.8431C48.6877 64.2045 48.0782 64.5944 47.4496 65.0128C47.1639 65.241 46.821 65.4407 46.5067 65.669C46.2019 65.9162 45.8972 66.1635 45.5924 66.4107C44.9448 66.9052 44.2876 67.4187 43.6209 67.9512C43.278 68.2365 42.9637 68.5218 42.6494 68.8356C42.3256 69.1209 41.9923 69.4252 41.6494 69.7485C38.9065 72.2305 36.135 75.3687 33.3349 79.2486C33.8206 78.9348 34.3063 78.678 34.7921 78.4498C35.2873 78.2406 35.773 78.0504 36.2493 77.8792C37.1921 77.5654 38.1065 77.3372 38.9922 77.1375C39.4494 77.0519 39.9065 76.9948 40.3637 76.9377C40.8208 76.8807 41.2685 76.8331 41.7066 76.7951C42.5923 76.7095 43.478 76.6239 44.3924 76.5384C45.2781 76.4528 46.2496 76.3957 47.1925 76.2531C48.1353 76.1104 49.1068 75.9393 50.1354 75.6825C51.1926 75.4543 52.2497 75.1405 53.3926 74.7125C53.945 74.5033 54.5355 74.2751 55.1641 74.0278C55.7927 73.7996 56.4308 73.5238 57.0785 73.2005C60.1357 71.8026 63.3644 69.6915 67.1359 67.6945C70.8789 65.6975 75.1362 63.7575 79.7649 62.6735C80.8792 62.4738 82.0221 62.3596 83.1364 62.1885C83.7079 62.1029 84.2507 62.0173 84.8222 61.9602C85.3936 61.9032 85.9651 61.8461 86.5365 61.7891C86.5937 61.7891 86.6508 61.7891 86.7365 61.7891L87.9937 61.6464C88.4223 61.6179 88.8509 61.5894 89.2795 61.5608C90.1366 61.5038 90.9938 61.4467 91.8795 61.3897C92.7367 61.3707 93.5939 61.3516 94.451 61.3326L95.1082 61.3041C95.3082 61.3041 95.5368 61.3326 95.7368 61.3326H97.0511L98.5083 61.3611C98.994 61.3611 99.4798 61.3897 99.9655 61.4182L101.394 61.4753L102.137 61.5038L102.851 61.5608L105.737 61.7891C106.69 61.9032 107.642 62.0173 108.594 62.1314C112.394 62.6164 116.166 63.3581 119.852 64.2996L122.623 65.0413C123.538 65.3456 124.442 65.6404 125.338 65.9257C125.795 66.0398 126.252 66.211 126.709 66.3822Z" fill="white"/>
<path d="M146.994 53.2592C146.48 53.012 145.956 52.7647 145.423 52.5175C144.909 52.2322 144.366 52.0325 143.851 51.8043C142.766 51.3478 141.737 50.8628 140.68 50.4064C139.613 49.9879 138.546 49.56 137.48 49.1226C133.194 47.4964 128.851 46.0415 124.251 44.7862C119.908 43.6451 115.365 42.7036 110.679 42.076C105.993 41.4769 101.193 41.2772 96.3928 41.4769C91.4498 41.1631 87.1068 41.106 82.9638 41.2772C81.9161 41.3343 80.878 41.4008 79.8494 41.4769C78.8208 41.5625 77.8208 41.7337 76.7922 41.8763C74.735 42.1331 72.7349 42.6751 70.6206 43.2457C66.5062 44.558 62.1632 46.555 57.6202 49.9214C56.5154 50.7772 55.382 51.6996 54.2201 52.6886C53.1153 53.7347 51.9914 54.8568 50.8485 56.055C49.7342 57.3103 48.5913 58.5941 47.5056 60.0205C46.9722 60.7622 46.4293 61.5135 45.8769 62.2742C45.6103 62.6546 45.3436 63.0445 45.0769 63.4439C44.8198 63.8433 44.5626 64.2712 44.3055 64.6992C45.4484 63.8433 46.677 63.1872 47.8484 62.5595C48.477 62.2457 49.0485 61.9319 49.6771 61.6751C50.2866 61.4279 50.8961 61.1902 51.5057 60.9619C52.1152 60.7147 52.7343 60.4865 53.3629 60.2772C53.9629 60.049 54.6201 59.8778 55.2201 59.7067C55.8487 59.5165 56.4773 59.3358 57.1059 59.1646C57.4202 59.079 57.7345 58.9649 58.0488 58.8793C58.3726 58.8033 58.6964 58.7272 59.0202 58.6511C59.6488 58.4799 60.2869 58.3088 60.9345 58.1376C61.5917 57.9664 62.2203 57.7953 62.8775 57.6241C63.5442 57.4719 64.2108 57.3008 64.8775 57.1106C65.5347 56.9394 66.1919 56.7112 66.8776 56.54C67.5633 56.3498 68.2586 56.1406 68.9634 55.9124C69.6491 55.6841 70.3634 55.4274 71.0777 55.1992C72.5349 54.7142 74.0207 54.0865 75.6207 53.516C79.3065 51.9469 82.9352 49.9784 87.0782 48.0385C87.5925 47.7912 88.1163 47.544 88.6497 47.2967C88.9164 47.1636 89.183 47.04 89.4497 46.9259C89.7354 46.8118 90.0116 46.6976 90.2783 46.5835C91.3926 46.1556 92.5355 45.6706 93.707 45.2427C94.907 44.8433 96.1452 44.4629 97.4214 44.1015C98.7071 43.7307 100.05 43.4739 101.45 43.1886H102.164L102.879 43.2171L104.279 43.2457L105.707 43.3027C106.193 43.3313 106.65 43.3598 107.136 43.4168C109.022 43.588 110.908 43.7021 112.765 44.0159C116.536 44.4724 120.222 45.3283 123.879 46.2127C131.08 48.2097 137.737 50.6631 144.537 53.6016C148.566 55.3989 152.509 57.3388 156.252 59.6496C157.195 60.2487 158.109 60.8763 159.023 61.504C159.452 61.8178 159.938 62.1316 160.366 62.4454L161.681 63.4724C162.538 64.1857 163.423 64.8418 164.223 65.6121C165.043 66.3729 165.852 67.1431 166.652 67.9229C167.481 68.7788 168.052 68.1797 167.224 67.3523C162.338 62.1887 156.48 58.1091 150.166 54.8283C149.137 54.2577 148.052 53.7727 146.994 53.2592Z" fill="white"/>
<path d="M21.962 81.0458C22.0763 83.0428 22.3049 84.8401 22.4478 86.7515C22.562 87.7215 22.6192 88.6914 22.6192 89.6899C22.6192 90.2035 22.6001 90.7265 22.562 91.259C22.5335 91.8011 22.5049 92.3431 22.4478 92.9422C22.762 92.3716 23.0478 91.8296 23.3906 91.3161C23.7145 90.7835 24.0383 90.27 24.3621 89.7755C24.6859 89.281 25.0002 88.7865 25.305 88.292C25.5907 87.8071 25.9336 87.3506 26.2479 86.8941C26.8574 85.9622 27.4574 85.0778 28.0479 84.241C28.6575 83.4042 29.2384 82.5958 29.7908 81.8161C30.0766 81.4167 30.3337 81.0173 30.6194 80.6464C30.9052 80.285 31.1814 79.9237 31.448 79.5623C31.9814 78.8586 32.4957 78.1644 32.9909 77.4797C34.0195 76.1959 34.991 74.9692 35.8196 73.7995C36.7339 72.6869 37.5625 71.6028 38.3054 70.5758C38.6483 70.0623 39.0483 69.6058 39.3911 69.1208C39.753 68.6454 40.0864 68.1794 40.3912 67.7229C40.715 67.2855 41.0198 66.8386 41.3055 66.3821C41.6198 65.9542 41.9055 65.5548 42.1912 65.1268C42.7436 64.309 43.2484 63.5007 43.7055 62.7019C44.6484 61.1328 45.5056 59.6493 46.3056 58.1088C47.1342 56.5683 47.9628 55.0562 48.82 53.4872C49.2771 52.6884 49.7915 51.8896 50.3343 51.0622C50.8772 50.2349 51.4486 49.3505 52.1344 48.4661C53.4773 46.7544 55.0488 44.8145 57.1631 42.9031L58.9346 41.819C59.5346 41.4481 60.1346 41.1343 60.7346 40.792L62.5633 39.7935L63.4776 39.2799C63.7919 39.1373 64.1062 38.9947 64.4205 38.8235C65.6491 38.2244 66.9063 37.5968 68.1634 36.9977C69.4587 36.4461 70.754 35.9041 72.0493 35.3715C77.2494 33.2889 82.7353 31.6628 88.3927 30.6358C89.7927 30.4361 91.1927 30.1793 92.6213 30.0082C94.0309 29.875 95.45 29.7419 96.8786 29.6088C98.3072 29.5517 99.7359 29.4946 101.164 29.4661L102.222 29.4376L103.307 29.4661L105.45 29.5232C111.165 29.7514 116.851 30.5502 122.422 31.7769C127.994 33.0037 133.423 34.7439 138.708 36.798C143.994 38.852 149.137 41.2199 154.109 43.9301C155.452 44.6148 155.909 43.8445 154.566 43.1598C149.566 40.3926 144.366 37.9676 139.051 35.8565C133.737 33.7739 128.251 32.0052 122.651 30.7214C117.051 29.4661 111.308 28.6388 105.536 28.3535L103.365 28.2964L102.279 28.2394C101.907 28.2394 101.564 28.2679 101.193 28.2679C99.7359 28.2679 98.3072 28.2964 96.85 28.3535C95.4024 28.4486 93.9547 28.5627 92.5071 28.6958C91.0784 28.8385 89.6213 29.0667 88.1926 29.2664C86.8783 29.4376 85.5926 29.7514 84.2782 30.0082L82.3353 30.4361C81.7067 30.5502 81.0496 30.7499 80.421 30.9211C79.1352 31.2919 77.878 31.6058 76.6209 32.0052C75.3827 32.4236 74.1446 32.8515 72.9065 33.2889C72.2779 33.4886 71.6778 33.7454 71.0778 34.0022L69.2778 34.7154L67.4777 35.4571L65.7348 36.2844L63.9919 37.1118C63.4204 37.3971 62.8204 37.6538 62.2775 37.9676C61.1537 38.5762 60.0299 39.1753 58.906 39.7649C53.163 42.9887 47.7628 46.7259 42.9055 50.8911C35.8196 55.7124 29.8765 60.9617 26.4193 66.0683C22.1906 72.4872 21.8192 77.1374 21.962 81.0458Z" fill="white"/>
<path d="M30.9916 197.356C32.0774 197.641 33.0774 197.87 34.0774 198.041C34.5632 198.126 35.0489 198.183 35.5346 198.24C36.0299 198.297 36.5156 198.354 36.9918 198.412C37.9633 198.526 38.9062 198.611 39.8776 198.754C40.8205 198.897 41.8491 199.011 42.8492 199.239C43.8778 199.439 44.9349 199.724 46.0493 200.095C41.9348 196.443 38.7347 193.077 35.9632 190.167C35.2775 189.406 34.6203 188.683 33.9917 187.999C33.6774 187.656 33.3631 187.342 33.0489 187C32.7631 186.658 32.4774 186.325 32.1917 186.002C31.6202 185.355 31.0678 184.737 30.5345 184.147C30.2488 183.862 29.9916 183.548 29.7345 183.263C29.4868 182.959 29.2392 182.673 28.9916 182.407C25.0772 177.957 22.1056 174.933 19.2198 172.422C18.5055 171.794 17.7627 171.195 17.0484 170.596C16.3626 170.026 15.6483 169.427 14.934 168.827C14.5721 168.542 14.2006 168.247 13.8197 167.943C13.6482 167.791 13.4673 167.639 13.2768 167.487C13.1054 167.334 12.9244 167.182 12.7339 167.03C12.0196 166.402 11.2767 165.718 10.5053 165.005C10.1339 164.634 9.73384 164.291 9.33383 163.892C8.95286 163.493 8.5719 163.084 8.19094 162.665C7.41948 161.809 6.59089 160.868 5.79086 159.812C5.01941 158.785 4.19081 157.616 3.36222 156.332C2.56219 155.048 1.79074 153.622 0.962139 152.053C1.30501 153.004 1.63835 153.955 1.96217 154.905C2.1336 155.362 2.27647 155.847 2.47647 156.303L2.99078 157.73C3.33364 158.662 3.65746 159.603 3.96223 160.554C4.32415 161.486 4.67654 162.408 5.01941 163.321C6.36231 167.03 7.84807 170.596 9.3624 173.991C12.4482 180.752 16.0769 186.686 20.0484 190.623C21.4199 191.964 22.7628 193.048 24.02 193.961C25.2772 194.845 26.5344 195.53 27.6772 196.101C28.2487 196.358 28.7916 196.614 29.363 196.814C29.9154 197.023 30.4583 197.204 30.9916 197.356Z" fill="white"/>
<path d="M28.1626 134.194C28.2484 133.452 28.3341 132.739 28.5055 132.026C26.6483 136.904 25.1911 140.584 23.7625 143.837C23.4196 144.664 23.1053 145.463 22.791 146.233C22.6386 146.613 22.4863 147.003 22.3339 147.403C22.2005 147.783 22.0672 148.164 21.9339 148.544C21.4196 150.113 20.9053 151.682 20.6767 153.422C20.5338 154.278 20.4195 155.191 20.3624 156.133C20.3624 157.074 20.3624 158.072 20.4481 159.157C20.5053 160.241 20.7053 161.353 20.9338 162.58C21.0481 163.179 21.191 163.807 21.3339 164.463C21.5243 165.11 21.7339 165.775 21.9624 166.46C22.191 167.145 22.391 167.858 22.7053 168.6C22.991 169.322 23.3053 170.064 23.6482 170.825C23.8196 171.224 24.0006 171.624 24.1911 172.023C24.3625 172.422 24.5911 172.822 24.8197 173.221C25.2387 174.02 25.6959 174.857 26.1911 175.732C28.2484 179.127 30.9341 182.892 34.6485 186.801C34.5343 186.515 34.4485 186.259 34.3914 186.002C34.3152 185.736 34.2485 185.479 34.1914 185.232C34.0771 184.718 33.9819 184.214 33.9057 183.72C33.7914 182.75 33.7057 181.837 33.7342 180.924C33.82 179.098 34.0485 177.415 34.2771 175.646C34.3914 174.762 34.5057 173.849 34.5628 172.936C34.6485 171.994 34.6485 171.024 34.6485 169.969C34.62 168.942 34.5057 167.858 34.3628 166.688C34.2866 166.079 34.1914 165.461 34.0771 164.834C34.0009 164.51 33.9247 164.187 33.8485 163.864C33.7914 163.521 33.7057 163.208 33.6199 162.837C32.6485 158.843 30.7341 154.278 29.4198 148.972C29.1341 147.66 28.7341 146.319 28.5626 144.921C28.4484 144.236 28.3341 143.542 28.2198 142.838C28.1341 142.125 28.0769 141.412 28.0198 140.699C27.8769 139.272 27.9341 137.817 27.9626 136.362C27.9626 135.62 28.0769 134.907 28.1626 134.194Z" fill="white"/>
<path d="M2.67645 150.941C2.81931 151.369 3.01932 151.768 3.19075 152.139C3.55267 152.919 3.91459 153.651 4.2765 154.336C4.96224 155.676 5.81941 156.818 6.59086 157.816C8.13377 159.813 9.87667 161.154 11.4767 162.324C12.2767 162.894 13.1053 163.408 13.9339 163.921C14.7625 164.406 15.5626 164.92 16.3912 165.433C17.1626 165.975 18.0198 166.517 18.8484 167.145C19.677 167.773 20.477 168.486 21.3056 169.285C17.2483 159.214 15.534 151.739 13.9339 146.062C13.5054 144.664 13.1911 143.324 12.8196 142.097C12.6482 141.498 12.4196 140.899 12.2767 140.328C12.1053 139.757 11.9339 139.206 11.7624 138.673C11.0196 136.534 10.391 134.651 9.61952 132.911C9.52428 132.682 9.42904 132.464 9.3338 132.254C9.23856 132.045 9.14332 131.827 9.04808 131.598C8.87664 131.18 8.69569 130.761 8.5052 130.343C8.13376 129.516 7.73375 128.688 7.33374 127.833C6.9623 127.005 6.59086 126.149 6.21942 125.265C6.02894 124.828 5.83846 124.381 5.64797 123.924C5.44797 123.468 5.24796 122.983 5.07653 122.498C4.39079 120.558 3.64791 118.39 3.19075 115.822C2.9336 114.538 2.67645 113.169 2.53359 111.657C2.4574 110.915 2.40025 110.135 2.36216 109.317C2.33359 108.918 2.30501 108.49 2.27644 108.062C2.27644 107.644 2.27644 107.216 2.27644 106.778C1.27641 114.795 0.304949 122.697 0.0477983 130.115C-0.18078 137.532 0.390666 144.379 2.19072 149.628C2.34311 150.085 2.50502 150.522 2.67645 150.941Z" fill="white"/>
<path d="M34.5632 101.843C34.1251 102.281 33.687 102.69 33.2489 103.07C32.8298 103.469 32.4107 103.85 31.9917 104.211C31.5726 104.592 31.1726 104.962 30.7916 105.324C30.0202 106.037 29.2487 106.665 28.5344 107.321C27.8296 107.948 27.1344 108.557 26.4487 109.147C26.1058 109.432 25.7724 109.717 25.4486 110.003C25.1248 110.288 24.8105 110.573 24.5057 110.858C23.8962 111.429 23.2867 112.009 22.6771 112.599L22.2485 113.027L21.8199 113.483C21.5342 113.787 21.258 114.101 20.9913 114.424C20.4485 115.052 19.9056 115.708 19.3913 116.421C18.877 117.163 18.4198 117.933 17.9341 118.761C17.7055 119.179 17.4769 119.617 17.2484 120.073C17.0484 120.53 16.8484 121.015 16.6484 121.528C16.4388 122.023 16.2388 122.536 16.0483 123.069C15.8769 123.639 15.6769 124.21 15.534 124.809C15.3816 125.398 15.2388 126.017 15.1054 126.663C14.9626 127.319 14.7912 128.004 14.734 128.717C14.6388 129.44 14.553 130.191 14.4769 130.971C14.4388 131.351 14.4007 131.741 14.3626 132.141C14.3435 132.559 14.3245 132.978 14.3054 133.396C14.2864 134.233 14.2769 135.108 14.2769 136.021C14.2769 136.934 14.3626 137.903 14.4197 138.873C14.7054 142.81 15.4197 147.375 17.0198 152.453C17.1912 151.312 17.4484 150.313 17.7341 149.372C17.9055 148.887 18.0484 148.459 18.2484 148.031C18.4389 147.594 18.6484 147.175 18.877 146.776C19.7342 145.15 20.677 143.752 21.7057 142.24C22.22 141.498 22.7057 140.728 23.1628 139.929C23.6486 139.13 24.1343 138.246 24.5629 137.304C24.7915 136.848 25.001 136.363 25.1915 135.849C25.401 135.336 25.601 134.794 25.7915 134.223C26.001 133.653 26.182 133.063 26.3344 132.455C26.5058 131.827 26.7058 131.171 26.8772 130.458C27.7916 126.435 28.1058 121.5 29.2487 116.193C29.5059 114.852 29.9059 113.512 30.2773 112.171C30.4488 111.486 30.6774 110.801 30.9345 110.145C31.1631 109.46 31.4107 108.785 31.6774 108.12C31.9631 107.463 32.2488 106.807 32.5631 106.151C32.8774 105.495 33.1632 104.839 33.5632 104.211C34.306 102.956 35.0489 101.701 35.9918 100.56C35.5061 100.987 35.0203 101.415 34.5632 101.843Z" fill="white"/>
<path d="M4.41908 112.398C4.50479 113.083 4.59051 113.739 4.76194 114.338C5.36196 116.82 6.16199 118.76 7.16202 120.501C7.64775 121.356 8.16205 122.184 8.64778 122.983C9.13351 123.781 9.70495 124.58 10.1907 125.407C10.6764 126.235 11.1621 127.091 11.5907 128.004C12.0765 128.916 12.5336 129.915 12.9051 130.999C13.3051 125.607 13.9622 121.043 14.6765 117.106C14.7527 116.611 14.8289 116.126 14.9051 115.651C15.0004 115.175 15.0861 114.709 15.1623 114.253C15.3527 113.359 15.5147 112.484 15.648 111.628C15.8194 110.791 15.9909 109.983 16.1623 109.203C16.3052 108.433 16.4194 107.663 16.5909 106.949C17.7052 101.158 18.3909 97.05 18.5909 93.2557C18.7624 91.4014 18.7338 89.5755 18.8195 87.7497C18.8767 86.8083 18.9052 85.8953 18.9338 84.9254C18.9529 84.6971 18.9624 84.4594 18.9624 84.2122C18.9814 83.9649 19.01 83.7177 19.0481 83.4704C19.0862 82.9759 19.1338 82.4719 19.191 81.9584C19.3053 80.9599 19.4195 79.8473 19.6195 78.7347C19.8481 77.5935 20.1338 76.4239 20.4481 75.1401C20.7624 73.8563 21.2482 72.5725 21.7625 71.1461C22.0291 70.4233 22.3244 69.6816 22.6482 68.9208C22.9911 68.1791 23.353 67.4183 23.734 66.6385L22.9054 67.8938C22.6196 68.3217 22.3339 68.7211 22.0482 69.1491C21.5148 70.0049 20.9624 70.8513 20.391 71.6881L19.5624 72.9434L18.7624 74.1986C18.229 75.0355 17.6862 75.8723 17.1338 76.7091C16.8766 77.1085 16.6194 77.5365 16.3623 77.9359C16.0956 78.3543 15.8385 78.7727 15.5909 79.1911C15.0766 80.047 14.5622 80.8458 14.0479 81.6731C13.5717 82.51 13.0955 83.3468 12.6193 84.1836C12.1622 85.011 11.6764 85.8098 11.2479 86.6371C7.73346 93.1987 5.19053 99.6461 4.47622 105.124C4.24764 107.006 4.13335 108.69 4.24764 110.23C4.28574 110.991 4.34288 111.714 4.41908 112.398Z" fill="white"/>
<path d="M45.0782 85.0398C45.5353 84.5073 46.002 83.9748 46.4782 83.4422C46.9354 82.9287 47.4783 82.4437 47.9926 81.9302C48.5069 81.4167 48.9926 80.9032 49.564 80.4182C50.1164 79.9617 50.6784 79.4958 51.2498 79.0203C51.8213 78.5638 52.3927 78.1074 53.0213 77.708C54.2499 76.9092 55.4785 76.0819 56.8214 75.4542C56.1928 75.6539 55.5642 75.8251 54.9642 76.0248C54.3737 76.215 53.8023 76.3957 53.2499 76.5668C52.6784 76.738 52.1165 76.8997 51.5641 77.0518C51.0498 77.223 50.5355 77.3942 50.0212 77.5368C49.0117 77.8411 48.0307 78.1169 47.0783 78.3641C46.1639 78.6304 45.2687 78.8872 44.3925 79.1344C42.621 79.5909 41.0495 80.0759 39.4494 80.6179C37.8494 81.1314 36.3636 81.8161 34.7636 82.6434C34.3922 82.8717 33.9636 83.0714 33.5921 83.3281C33.2112 83.5754 32.8207 83.8416 32.4207 84.1269C31.6492 84.669 30.8206 85.2966 29.992 86.0098C29.2206 86.7515 28.392 87.5789 27.5634 88.4918C27.1348 88.9482 26.7348 89.4618 26.3348 90.0038C25.9157 90.5363 25.4966 91.0974 25.0776 91.687C24.649 92.2576 24.249 92.9137 23.849 93.5699C23.4299 94.2355 23.0108 94.9393 22.5918 95.681C22.1918 96.4227 21.8203 97.2215 21.4203 98.0489C21.0203 98.8762 20.5917 99.7321 20.2489 100.674C19.8869 101.586 19.5155 102.547 19.1345 103.555C18.8202 104.553 18.5059 105.637 18.1631 106.722C17.8202 107.834 17.5631 109.004 17.2773 110.202C17.163 110.801 16.9916 111.429 16.8773 112.056C16.7821 112.684 16.6773 113.331 16.563 113.996C16.8868 113.521 17.2107 113.074 17.5345 112.656C17.7059 112.446 17.8678 112.247 18.0202 112.056C18.2107 111.866 18.3917 111.686 18.5631 111.514C19.2774 110.83 19.9917 110.231 20.7346 109.689C21.0965 109.403 21.4584 109.137 21.8203 108.89C22.2203 108.642 22.6108 108.405 22.9918 108.177C23.7632 107.749 24.5061 107.292 25.3062 106.836C25.6871 106.607 26.0776 106.37 26.4776 106.122C26.8776 105.875 27.2776 105.618 27.6777 105.352C28.4777 104.839 29.2777 104.268 30.0777 103.583C30.9063 102.956 31.7349 102.214 32.5635 101.358C32.9635 100.902 33.4207 100.474 33.8778 99.9888C34.316 99.4943 34.7636 98.9713 35.2207 98.4197C37.8494 95.196 40.3352 90.9167 43.7639 86.6374C44.1639 86.0669 44.621 85.5819 45.0782 85.0398Z" fill="white"/>
<path d="M165.196 193.848C165.196 193.848 165.167 193.848 165.167 193.876C165.167 193.857 165.167 193.848 165.167 193.848L165.139 193.876L164.967 193.962C164.929 193.981 164.891 194 164.853 194.019L164.539 194.19L163.71 194.59C163.672 194.609 163.634 194.628 163.596 194.647L163.281 194.789C157.853 197.328 141.424 204.061 118.823 204.375C90.2221 203.091 54.8496 190.538 35.9918 142.011C35.9918 142.011 50.478 231.106 133.623 209.339C133.595 209.367 133.538 209.367 133.509 209.396L130.566 210.508C129.595 210.851 128.595 211.165 127.595 211.478C127.08 211.65 126.595 211.821 126.08 211.963L124.566 212.391C123.566 212.648 122.566 212.962 121.509 213.162L118.452 213.846L115.337 214.417C114.309 214.617 113.251 214.702 112.194 214.845L110.623 215.045C110.108 215.13 109.594 215.13 109.051 215.187C104.851 215.615 100.622 215.615 96.4223 215.387L94.8222 215.301L94.0508 215.244C93.7936 215.216 93.5079 215.187 93.2507 215.159L90.1078 214.816C89.0506 214.674 88.022 214.502 86.9648 214.36C85.9077 214.189 84.8791 213.96 83.8505 213.761C81.7932 213.39 79.736 212.819 77.7074 212.306L74.6787 211.364L73.9073 211.136L73.1644 210.879L70.1929 209.795C69.6786 209.624 69.2214 209.396 68.7071 209.225C67.7642 208.797 66.7642 208.426 65.7927 207.998L62.9355 206.629C62.4593 206.419 61.9926 206.182 61.5355 205.915L60.1354 205.174C60.2497 204.232 60.3069 203.319 60.1926 202.378C60.0497 201.436 59.8211 200.409 59.3068 199.354C59.0783 198.821 58.7735 198.26 58.3925 197.671C58.0211 197.1 57.6211 196.444 57.1353 195.788C56.9068 195.445 56.6496 195.103 56.3639 194.732C56.0782 194.39 55.7639 194.047 55.4781 193.62C54.8496 192.849 54.1638 192.022 53.3924 191.138C52.8209 190.481 52.2495 189.797 51.5923 189.198C51.2685 188.893 50.9447 188.589 50.6209 188.285C50.297 187.98 49.9732 187.676 49.6494 187.372C48.9637 186.744 48.2779 186.145 47.5636 185.546C46.8779 184.89 46.1636 184.234 45.4493 183.578C44.7064 182.921 44.0206 182.18 43.3063 181.409C42.9444 181.029 42.592 180.639 42.2492 180.24C41.8777 179.84 41.5634 179.412 41.2491 178.956C39.9062 177.244 38.6776 175.219 37.7062 172.936C37.7062 173.678 37.7347 174.391 37.7347 175.047C37.7347 175.713 37.7252 176.36 37.7062 176.987C37.6776 177.587 37.649 178.214 37.6205 178.785C37.6205 179.355 37.5919 179.897 37.5919 180.439C37.5633 181.523 37.5347 182.579 37.6205 183.663C37.7062 184.69 37.8776 185.746 38.1919 186.887C38.2776 187.172 38.3633 187.486 38.4776 187.771C38.5633 188.085 38.6776 188.37 38.8205 188.656C39.0872 189.264 39.4015 189.892 39.7634 190.538C39.9348 190.881 40.1348 191.223 40.3634 191.566C40.5634 191.908 40.792 192.25 41.0491 192.593C41.5634 193.296 42.1539 194.038 42.8206 194.818C45.5064 197.842 49.5922 201.522 56.0782 205.174C55.24 204.774 54.4591 204.422 53.7352 204.118C53.0209 203.776 52.3352 203.49 51.7066 203.262C50.4494 202.777 49.3351 202.492 48.3351 202.264C47.3636 202.035 46.4493 201.95 45.5921 201.95C44.735 201.95 43.8778 202.007 43.0492 202.035C39.7348 202.178 35.9061 202.806 28.4487 198.327C33.5632 202.406 37.3347 205.259 40.7634 207.798C41.6491 208.397 42.5063 208.996 43.3349 209.567C43.7635 209.852 44.1921 210.138 44.6207 210.394L45.935 211.193C46.3636 211.45 46.8207 211.707 47.2493 211.963C47.6779 212.22 48.1351 212.477 48.6208 212.677C49.5542 213.152 50.5351 213.599 51.5637 214.018C57.1068 216.186 60.7926 215.957 63.8784 215.33C65.4499 215.016 66.8499 214.617 68.3071 214.246C69.7929 213.846 71.3072 213.504 73.0501 213.418C76.936 214.759 80.9075 215.9 84.9362 216.728C85.9362 216.956 86.9648 217.099 87.9649 217.27L89.5078 217.555L91.0221 217.755C92.0507 217.869 93.0793 218.04 94.1079 218.126L97.1651 218.382C105.423 218.896 113.737 218.354 121.852 216.642C122.337 216.528 122.88 216.442 123.366 216.328L124.88 215.929L126.366 215.558C126.88 215.415 127.395 215.33 127.88 215.159L130.852 214.274C131.109 214.189 131.338 214.103 131.595 214.018L132.309 213.761L133.766 213.247L135.252 212.734C135.738 212.563 136.195 212.334 136.681 212.163L139.538 210.965L142.367 209.653C142.824 209.424 143.309 209.225 143.767 208.996L145.138 208.255C149.024 206.229 152.71 203.89 156.253 201.322V201.294C156.996 200.761 157.729 200.21 158.453 199.639H158.481C160.786 197.832 162.996 195.921 165.11 193.905L165.196 193.848Z" fill="white"/>
<path d="M127.141 199.535C121.327 199.535 115.969 198.391 111.067 196.104C106.279 193.817 102.403 190.559 99.4394 186.328C96.5894 181.982 95.1644 176.837 95.1644 170.89C95.1644 164.944 96.7034 159.799 99.7814 155.453C102.859 150.994 107.02 147.62 112.264 145.333C117.622 142.932 123.493 141.731 129.877 141.731C135.121 141.731 139.795 142.589 143.899 144.304C148.117 145.905 151.993 148.364 155.527 151.68L156.382 150.822C155.356 149.793 153.589 148.249 151.081 146.191V142.761C151.081 138.072 149.428 134.356 146.122 131.612C142.816 128.867 138.199 127.495 132.271 127.495C121.669 127.495 113.86 131.383 108.844 139.159C106.336 138.358 104.227 137.1 102.517 135.385C100.807 133.555 99.9524 131.612 99.9524 129.553C99.9524 126.123 101.491 122.978 104.569 120.119C107.647 117.261 111.808 114.974 117.052 113.259C122.296 111.543 127.996 110.686 134.152 110.686C146.236 110.686 155.584 113.544 162.196 119.262C168.808 124.865 172.114 132.526 172.114 142.246V185.127C172.114 190.158 170.518 193.817 167.326 196.104C164.134 198.391 147.225 210.171 136.029 211.85C136.029 211.85 133.029 206.252 146.464 200.655C159.899 195.057 155.527 187.357 155.527 187.357C151.765 191.359 147.718 194.389 143.386 196.447C139.168 198.506 133.753 199.535 127.141 199.535ZM132.613 183.926C138.541 183.926 143.158 182.783 146.464 180.496C149.77 178.209 151.423 174.95 151.423 170.719C151.423 166.602 149.713 163.343 146.293 160.942C142.987 158.541 138.484 157.34 132.784 157.34C127.54 157.34 123.379 158.541 120.301 160.942C117.337 163.229 115.855 166.488 115.855 170.719C115.855 175.064 117.337 178.38 120.301 180.667C123.265 182.84 127.369 183.926 132.613 183.926Z" fill="white"/>
<path d="M182.312 127.152C182.312 121.892 183.965 117.832 187.27 114.974C190.69 112.115 195.82 110.686 202.66 110.686V120.977C201.292 122.578 199.924 124.408 198.556 126.466L199.582 127.152C203.002 122.006 207.391 118.004 212.749 115.145C218.107 112.172 224.035 110.686 230.533 110.686C236.347 110.686 241.477 112.001 245.923 114.631C250.369 117.261 253.789 120.863 256.183 125.437C258.691 130.011 259.945 135.156 259.945 140.874V186.499C259.945 191.073 258.178 194.389 254.644 196.447C251.11 198.506 245.752 199.535 238.57 199.535V143.961C238.57 139.616 237.259 136.071 234.637 133.327C232.129 130.582 228.424 129.21 223.522 129.21C217.708 129.21 212.92 131.04 209.158 134.699C205.396 138.244 203.515 142.703 203.515 148.078V186.499C203.515 191.073 201.805 194.389 198.385 196.447C194.965 198.506 189.607 199.535 182.312 199.535V127.152Z" fill="white"/>
<path d="M308.44 199.535C301.372 199.535 294.931 198.163 289.117 195.418C283.303 192.56 278.686 188.729 275.266 183.926C271.846 179.009 270.136 173.52 270.136 167.46V144.647C270.136 138.244 271.903 132.469 275.437 127.323C278.971 122.178 283.645 118.118 289.459 115.145C295.387 112.172 301.771 110.686 308.611 110.686C315.337 110.686 321.493 112.115 327.078 114.974C332.778 117.718 337.281 121.606 340.587 126.637C343.893 131.554 345.546 137.215 345.546 143.618V153.224C345.546 155.739 344.577 157.855 342.639 159.57C340.815 161.285 338.478 162.143 335.628 162.143H290.827V165.916C290.827 170.833 292.309 174.836 295.273 177.923C298.237 181.01 302.683 182.554 308.611 182.554C314.311 182.554 318.529 181.296 321.265 178.781C324.114 176.265 325.539 173.006 325.539 169.004C327.591 168.775 329.016 168.661 329.814 168.661C334.032 168.661 337.338 169.633 339.732 171.577C342.126 173.406 343.323 176.036 343.323 179.467C343.323 182.783 341.784 185.985 338.706 189.072C335.628 192.159 331.41 194.675 326.052 196.619C320.695 198.563 314.824 199.535 308.44 199.535ZM326.223 146.877V143.618C326.223 138.816 324.57 134.928 321.265 131.955C317.959 128.982 313.684 127.495 308.44 127.495C303.196 127.495 298.921 128.982 295.615 131.955C292.423 134.813 290.827 138.701 290.827 143.618V146.877H326.223Z" fill="white"/>
<path d="M394.291 199.535C386.881 199.535 380.326 198.22 374.626 195.59C368.926 192.845 364.48 189.072 361.289 184.269C358.097 179.467 356.501 174.035 356.501 167.975V143.961C356.501 137.443 358.097 131.669 361.289 126.637C364.48 121.606 368.926 117.718 374.626 114.974C380.326 112.115 386.824 110.686 394.12 110.686C400.96 110.686 407.002 111.658 412.246 113.602C417.604 115.546 421.765 118.29 424.729 121.835C427.693 125.265 429.175 129.267 429.175 133.841C429.175 137.386 427.807 140.245 425.071 142.418C422.335 144.59 418.744 145.676 414.298 145.676C413.044 145.676 412.132 145.619 411.562 145.505C411.562 140.588 409.966 136.643 406.774 133.67C403.696 130.697 399.649 129.21 394.633 129.21C389.617 129.21 385.513 130.64 382.321 133.498C379.243 136.357 377.704 140.131 377.704 144.819V166.431C377.704 170.776 379.3 174.321 382.492 177.065C385.684 179.695 389.788 181.01 394.804 181.01C399.82 181.01 403.924 179.524 407.116 176.551C410.308 173.463 411.904 169.575 411.904 164.887C412.588 164.773 413.557 164.716 414.811 164.716C419.257 164.716 422.848 165.745 425.584 167.803C428.32 169.861 429.688 172.663 429.688 176.208C429.688 180.782 428.149 184.841 425.071 188.386C422.107 191.816 417.946 194.561 412.588 196.619C407.23 198.563 401.131 199.535 394.291 199.535Z" fill="white"/>
<path d="M483.261 129.21C476.535 129.21 471.063 131.04 466.845 134.699C462.627 138.244 460.518 142.703 460.518 148.078V186.499C460.518 191.073 458.808 194.389 455.388 196.447C451.968 198.506 446.61 199.535 439.314 199.535V127.152C439.314 121.892 440.967 117.832 444.273 114.974C447.693 112.115 452.823 110.686 459.663 110.686V120.806C457.953 122.749 456.585 124.636 455.559 126.466L456.585 127.152C463.767 116.174 472.773 110.686 483.603 110.686C488.505 110.686 492.21 112.001 494.718 114.631C497.225 117.146 498.479 120.348 498.479 124.236C498.479 127.209 497.682 129.725 496.086 131.783C493.008 130.068 488.733 129.21 483.261 129.21Z" fill="white"/>
<path d="M585.654 182.897C585.654 188.272 583.944 192.388 580.524 195.247C577.218 198.106 572.145 199.535 565.305 199.535V189.243C566.787 187.528 568.155 185.641 569.409 183.583L568.383 182.897C561.087 193.989 551.283 199.535 538.971 199.535C533.158 199.535 527.914 198.22 523.24 195.59C518.68 192.845 515.032 189.072 512.296 184.269C509.674 179.467 508.363 174.035 508.363 167.975V123.721C508.363 119.033 510.073 115.717 513.493 113.773C517.027 111.715 522.385 110.686 529.567 110.686V166.431C529.567 170.89 530.935 174.435 533.671 177.065C536.407 179.695 540.339 181.01 545.469 181.01C551.169 181.01 555.729 179.238 559.149 175.693C562.683 172.034 564.45 167.517 564.45 162.143V123.721C564.45 119.033 566.16 115.717 569.58 113.773C573 111.715 578.358 110.686 585.654 110.686V182.897Z" fill="white"/>
<path d="M631.51 199.535C620.566 199.535 611.732 197.591 605.006 193.703C598.394 189.701 595.031 184.384 594.917 177.751C594.917 174.893 596.057 172.491 598.337 170.547C600.731 168.603 604.493 167.574 609.623 167.46C610.649 172.491 613.043 176.379 616.804 179.124C620.566 181.754 625.126 183.069 630.484 183.069C636.298 183.069 640.858 182.325 644.164 180.839C647.47 179.352 649.123 177.122 649.123 174.149C649.123 171.405 647.755 169.118 645.019 167.288C642.397 165.459 637.153 163.629 629.287 161.8C620.737 159.741 614.069 157.683 609.281 155.625C604.607 153.567 601.13 150.937 598.85 147.735C596.57 144.533 595.43 140.302 595.43 135.042C595.43 127.724 598.508 121.835 604.664 117.375C610.82 112.915 619.255 110.686 629.971 110.686C640.345 110.686 648.952 112.572 655.792 116.346C662.632 120.005 666.052 124.922 666.052 131.097C666.052 134.184 664.912 136.471 662.632 137.958C660.352 139.444 656.59 140.245 651.346 140.359C650.206 135.785 648.04 132.355 644.848 130.068C641.656 127.781 637.153 126.637 631.339 126.637C627.007 126.637 623.245 127.381 620.053 128.867C616.975 130.354 615.437 132.298 615.437 134.699C615.437 137.215 616.747 139.159 619.369 140.531C621.991 141.903 626.551 143.275 633.049 144.647C645.817 147.392 655.051 151.051 660.751 155.625C666.565 160.199 669.472 166.431 669.472 174.321C669.472 181.982 666.052 188.1 659.212 192.674C652.486 197.248 643.252 199.535 631.51 199.535Z" fill="white"/>
<path d="M702.537 134.599C701.418 115.007 709.932 111.648 722.13 111.648C727.944 111.648 730.532 112.001 734.978 114.631C739.424 117.261 742.844 120.863 745.238 125.437C747.746 130.011 749 135.156 749 140.874V186.499C749 191.073 747.233 194.389 743.699 196.447C740.165 198.506 734.807 199.535 727.625 199.535V143.961C727.625 139.616 726.314 136.071 723.692 133.327C721.184 130.582 717.479 129.21 712.577 129.21C706.763 129.21 704.777 130.681 702.537 134.599Z" fill="white"/>
<path d="M699.161 110.341V89.1295V79.5221C699.161 71.651 701.563 67.484 701.36 63.3169C701.128 59.1788 698.061 59.3814 698.061 59.3814H691.521H688.656H682.116C682.116 59.3814 679.049 59.1788 678.817 63.3169C678.615 67.484 681.017 71.651 681.017 79.5221V100.705V110.341C681.017 118.212 678.615 122.379 678.817 126.517C679.049 130.684 682.116 130.453 682.116 130.453H688.656H691.521H698.061C698.061 130.453 701.128 130.684 701.36 126.517C701.563 122.379 699.161 118.212 699.161 110.341Z" fill="white"/>
<path d="M698.929 1.70894C700.405 4.22654 697.656 8.5383 692.794 11.3453C687.962 14.1523 682.869 14.3837 681.422 11.8951C679.975 9.40643 682.724 5.09467 687.556 2.2877C692.389 -0.519279 697.482 -0.77972 698.929 1.70894Z" fill="white"/>
<path d="M699.161 15.8006V9.02917C697.83 10.6208 696.035 12.1255 693.952 13.312C690.971 15.0483 687.962 15.9164 685.415 15.9164C683.679 15.9164 682.174 15.5113 681.017 14.7299V27.3758V36.9832C681.017 44.8832 678.615 49.0214 678.817 53.1884C679.049 57.3265 682.116 57.124 682.116 57.124H688.656H691.521H698.061C698.061 57.124 701.128 57.3265 701.36 53.1884C701.563 49.0214 699.161 44.8832 699.161 36.9832V15.8006Z" fill="white"/>
<path d="M681.017 197.213H699.161V162.313V152.677C699.161 144.806 701.563 140.668 701.36 136.501C701.128 132.334 698.061 132.565 698.061 132.565H691.521H688.656H682.116C682.116 132.565 679.049 132.334 678.817 136.501C678.615 140.668 681.017 144.806 681.017 152.677V197.213Z" fill="white"/>
<path d="M699.131 197.011C699.131 198.863 695.08 200.367 690.074 200.367C685.068 200.367 681.016 198.863 681.016 197.011C681.016 195.159 685.068 193.654 690.074 193.654C695.08 193.654 699.131 195.159 699.131 197.011Z" fill="white"/>
<path d="M248.498 239.794H255.832L255.441 241.895H245.372L249.099 220.972H251.835L248.498 239.794Z" fill="#F9BF29"/>
<path d="M268.416 225.174C269.798 225.174 270.991 225.445 271.993 225.985C273.014 226.505 273.786 227.246 274.307 228.206C274.848 229.147 275.119 230.228 275.119 231.448C275.119 231.869 275.068 232.379 274.968 232.979C274.888 233.5 274.758 234.04 274.577 234.6H261.412C261.372 235.001 261.352 235.291 261.352 235.471C261.352 236.852 261.763 237.932 262.584 238.713C263.426 239.473 264.518 239.854 265.861 239.854C267.043 239.854 268.075 239.583 268.957 239.043C269.858 238.483 270.54 237.742 271.001 236.822H273.946C273.225 238.403 272.113 239.694 270.61 240.694C269.127 241.675 267.404 242.165 265.44 242.165C263.376 242.165 261.713 241.575 260.45 240.394C259.208 239.193 258.587 237.562 258.587 235.501C258.587 234.921 258.647 234.3 258.767 233.64C259.068 231.939 259.679 230.448 260.601 229.167C261.522 227.886 262.655 226.906 263.997 226.225C265.36 225.525 266.833 225.174 268.416 225.174ZM272.203 232.619C272.263 232.219 272.293 231.849 272.293 231.508C272.293 230.228 271.882 229.237 271.061 228.537C270.259 227.836 269.207 227.486 267.905 227.486C266.502 227.486 265.23 227.946 264.087 228.867C262.945 229.767 262.174 231.018 261.773 232.619H272.203Z" fill="#F9BF29"/>
<path d="M281.134 237.392C281.074 237.692 281.043 237.952 281.043 238.173C281.043 238.673 281.194 239.033 281.494 239.253C281.815 239.473 282.326 239.583 283.027 239.583H285.041L284.62 241.895H282.156C280.853 241.895 279.871 241.645 279.21 241.144C278.569 240.644 278.248 239.824 278.248 238.683C278.248 238.243 278.288 237.812 278.368 237.392L280.082 227.696H277.978L278.368 225.445H280.502L281.224 221.302H283.989L283.268 225.445H287.536L287.145 227.696H282.847L281.134 237.392Z" fill="#F9BF29"/>
<path d="M293.555 218L292.143 223.974H290.249L290.91 218H293.555Z" fill="#F9BF29"/>
<path d="M298.52 242.165C296.797 242.165 295.384 241.755 294.282 240.934C293.18 240.114 292.629 239.013 292.629 237.632C292.629 237.372 292.639 237.182 292.659 237.062H295.334C295.254 237.922 295.504 238.623 296.086 239.163C296.687 239.704 297.548 239.974 298.67 239.974C299.793 239.974 300.694 239.764 301.376 239.343C302.077 238.903 302.428 238.293 302.428 237.512C302.428 236.852 302.147 236.331 301.586 235.951C301.025 235.571 300.163 235.161 299.001 234.72C297.979 234.34 297.138 233.98 296.476 233.64C295.815 233.3 295.254 232.829 294.793 232.229C294.332 231.609 294.102 230.828 294.102 229.887C294.102 228.967 294.362 228.146 294.883 227.426C295.424 226.705 296.166 226.155 297.107 225.775C298.069 225.375 299.161 225.174 300.384 225.174C302.067 225.174 303.45 225.595 304.532 226.435C305.614 227.276 306.155 228.376 306.155 229.737C306.155 229.997 306.145 230.198 306.125 230.338H303.51L303.54 229.977C303.54 229.177 303.229 228.547 302.608 228.086C302.007 227.606 301.205 227.366 300.203 227.366C299.222 227.366 298.41 227.586 297.769 228.026C297.148 228.467 296.837 229.057 296.837 229.797C296.837 230.498 297.128 231.048 297.709 231.448C298.29 231.849 299.191 232.289 300.414 232.769C301.436 233.169 302.257 233.54 302.879 233.88C303.5 234.2 304.031 234.65 304.472 235.231C304.913 235.811 305.133 236.542 305.133 237.422C305.133 238.383 304.842 239.223 304.261 239.944C303.7 240.664 302.919 241.215 301.917 241.595C300.915 241.975 299.783 242.165 298.52 242.165Z" fill="#F9BF29"/>
<path d="M327.145 225.174C328.567 225.174 329.76 225.485 330.722 226.105C331.683 226.725 332.335 227.506 332.675 228.447L333.216 225.445H335.982L333.006 242.255C332.745 243.756 332.184 245.087 331.323 246.248C330.481 247.428 329.409 248.349 328.107 249.009C326.804 249.67 325.361 250 323.778 250C321.614 250 319.901 249.48 318.638 248.439C317.376 247.418 316.765 246.038 316.805 244.296H319.54C319.66 245.297 320.131 246.098 320.953 246.698C321.794 247.318 322.876 247.629 324.199 247.629C325.702 247.629 327.014 247.158 328.137 246.218C329.259 245.277 329.97 243.956 330.271 242.255L330.872 238.803C330.15 239.764 329.199 240.564 328.016 241.205C326.854 241.845 325.562 242.165 324.139 242.165C322.856 242.165 321.724 241.895 320.742 241.355C319.76 240.794 318.989 240.004 318.428 238.983C317.887 237.962 317.616 236.782 317.616 235.441C317.616 234.841 317.676 234.23 317.797 233.61C318.097 231.929 318.698 230.458 319.6 229.197C320.522 227.916 321.634 226.926 322.937 226.225C324.259 225.525 325.662 225.174 327.145 225.174ZM331.774 233.64C331.854 233.22 331.894 232.769 331.894 232.289C331.894 230.828 331.453 229.677 330.571 228.837C329.71 227.976 328.607 227.546 327.265 227.546C326.243 227.546 325.261 227.786 324.319 228.266C323.397 228.747 322.606 229.447 321.945 230.368C321.283 231.288 320.843 232.369 320.622 233.61C320.542 234.03 320.502 234.49 320.502 234.991C320.502 236.472 320.933 237.642 321.794 238.503C322.656 239.343 323.758 239.764 325.101 239.764C326.123 239.764 327.095 239.523 328.016 239.043C328.958 238.543 329.76 237.832 330.421 236.912C331.102 235.971 331.553 234.881 331.774 233.64Z" fill="#F9BF29"/>
<path d="M344.932 242.165C343.55 242.165 342.327 241.885 341.265 241.325C340.223 240.744 339.412 239.944 338.831 238.923C338.249 237.882 337.959 236.682 337.959 235.321C337.959 233.46 338.39 231.759 339.251 230.218C340.113 228.657 341.295 227.426 342.798 226.525C344.321 225.625 346.014 225.174 347.878 225.174C349.261 225.174 350.483 225.465 351.545 226.045C352.627 226.605 353.459 227.406 354.04 228.447C354.641 229.467 354.942 230.668 354.942 232.049C354.942 233.91 354.501 235.611 353.619 237.152C352.737 238.693 351.535 239.914 350.012 240.814C348.489 241.715 346.796 242.165 344.932 242.165ZM345.263 239.854C346.565 239.854 347.738 239.503 348.78 238.803C349.822 238.083 350.633 237.142 351.214 235.981C351.816 234.801 352.116 233.54 352.116 232.199C352.116 230.678 351.675 229.517 350.794 228.717C349.912 227.896 348.81 227.486 347.487 227.486C346.185 227.486 345.023 227.846 344.001 228.567C342.979 229.267 342.187 230.208 341.626 231.388C341.065 232.569 340.784 233.84 340.784 235.201C340.784 236.682 341.205 237.832 342.047 238.653C342.888 239.453 343.96 239.854 345.263 239.854Z" fill="#F9BF29"/>
<path d="M373.112 242.165C371.729 242.165 370.507 241.885 369.445 241.325C368.402 240.744 367.591 239.944 367.01 238.923C366.429 237.882 366.138 236.682 366.138 235.321C366.138 233.46 366.569 231.759 367.431 230.218C368.292 228.657 369.475 227.426 370.977 226.525C372.5 225.625 374.194 225.174 376.057 225.174C377.44 225.174 378.662 225.465 379.724 226.045C380.806 226.605 381.638 227.406 382.219 228.447C382.82 229.467 383.121 230.668 383.121 232.049C383.121 233.91 382.68 235.611 381.798 237.152C380.917 238.693 379.714 239.914 378.191 240.814C376.668 241.715 374.975 242.165 373.112 242.165ZM373.442 239.854C374.745 239.854 375.917 239.503 376.959 238.803C378.001 238.083 378.813 237.142 379.394 235.981C379.995 234.801 380.295 233.54 380.295 232.199C380.295 230.678 379.855 229.517 378.973 228.717C378.091 227.896 376.989 227.486 375.666 227.486C374.364 227.486 373.202 227.846 372.18 228.567C371.158 229.267 370.366 230.208 369.805 231.388C369.244 232.569 368.964 233.84 368.964 235.201C368.964 236.682 369.384 237.832 370.226 238.653C371.068 239.453 372.14 239.854 373.442 239.854Z" fill="#F9BF29"/>
<path d="M396.095 225.144C397.799 225.144 399.161 225.605 400.183 226.525C401.205 227.426 401.716 228.747 401.716 230.488C401.716 231.128 401.666 231.699 401.566 232.199L399.852 241.895H397.147L398.8 232.589C398.881 232.169 398.921 231.729 398.921 231.268C398.921 230.048 398.58 229.117 397.899 228.477C397.237 227.836 396.306 227.516 395.103 227.516C393.661 227.516 392.428 227.966 391.406 228.867C390.404 229.767 389.753 231.078 389.452 232.799V232.739L387.829 241.895H385.094L388.01 225.445H390.745L390.324 227.816C391.005 226.956 391.857 226.295 392.879 225.835C393.901 225.375 394.973 225.144 396.095 225.144Z" fill="#F9BF29"/>
<path d="M424.425 225.144C426.068 225.144 427.39 225.605 428.392 226.525C429.394 227.426 429.895 228.737 429.895 230.458C429.895 231.098 429.845 231.679 429.745 232.199L428.032 241.895H425.326L426.98 232.589C427.06 232.169 427.1 231.729 427.1 231.268C427.1 230.048 426.759 229.117 426.078 228.477C425.417 227.836 424.485 227.516 423.283 227.516C421.84 227.516 420.607 227.966 419.585 228.867C418.584 229.767 417.932 231.078 417.632 232.799V232.739L416.009 241.895H413.273L417.211 219.681H419.946L418.503 227.816C419.185 226.976 420.046 226.325 421.088 225.865C422.15 225.385 423.263 225.144 424.425 225.144Z" fill="#F9BF29"/>
<path d="M442.569 225.174C443.952 225.174 445.144 225.445 446.146 225.985C447.168 226.505 447.939 227.246 448.46 228.206C449.002 229.147 449.272 230.228 449.272 231.448C449.272 231.869 449.222 232.379 449.122 232.979C449.042 233.5 448.911 234.04 448.731 234.6H435.566C435.526 235.001 435.506 235.291 435.506 235.471C435.506 236.852 435.916 237.932 436.738 238.713C437.58 239.473 438.672 239.854 440.014 239.854C441.196 239.854 442.228 239.583 443.11 239.043C444.012 238.483 444.693 237.742 445.154 236.822H448.1C447.378 238.403 446.266 239.694 444.763 240.694C443.28 241.675 441.557 242.165 439.593 242.165C437.529 242.165 435.866 241.575 434.604 240.394C433.361 239.193 432.74 237.562 432.74 235.501C432.74 234.921 432.8 234.3 432.921 233.64C433.221 231.939 433.832 230.448 434.754 229.167C435.676 227.886 436.808 226.906 438.151 226.225C439.513 225.525 440.986 225.174 442.569 225.174ZM446.356 232.619C446.417 232.219 446.447 231.849 446.447 231.508C446.447 230.228 446.036 229.237 445.214 228.537C444.413 227.836 443.361 227.486 442.058 227.486C440.655 227.486 439.383 227.946 438.241 228.867C437.099 229.767 436.327 231.018 435.926 232.619H446.356Z" fill="#F9BF29"/>
<path d="M451.56 233.61C451.861 231.929 452.462 230.458 453.363 229.197C454.285 227.916 455.397 226.926 456.7 226.225C458.022 225.525 459.425 225.174 460.908 225.174C462.351 225.174 463.543 225.485 464.485 226.105C465.427 226.725 466.078 227.506 466.439 228.447L466.98 225.445H469.745L466.829 241.895H464.064L464.635 238.833C463.914 239.794 462.962 240.594 461.78 241.235C460.597 241.855 459.295 242.165 457.872 242.165C456.59 242.165 455.457 241.895 454.476 241.355C453.494 240.794 452.732 240.004 452.191 238.983C451.65 237.962 451.38 236.782 451.38 235.441C451.38 234.841 451.44 234.23 451.56 233.61ZM465.537 233.64C465.617 233.22 465.657 232.769 465.657 232.289C465.657 230.828 465.216 229.677 464.335 228.837C463.473 227.976 462.371 227.546 461.028 227.546C460.006 227.546 459.024 227.786 458.082 228.266C457.161 228.747 456.369 229.447 455.708 230.368C455.047 231.288 454.606 232.369 454.385 233.61C454.305 234.03 454.265 234.49 454.265 234.991C454.265 236.472 454.696 237.642 455.558 238.503C456.419 239.343 457.521 239.764 458.864 239.764C459.886 239.764 460.858 239.523 461.78 239.043C462.721 238.543 463.523 237.832 464.184 236.912C464.866 235.971 465.316 234.881 465.537 233.64Z" fill="#F9BF29"/>
<path d="M478.124 219.681L474.187 241.895H471.452L475.389 219.681H478.124Z" fill="#F9BF29"/>
<path d="M482.997 237.392C482.937 237.692 482.907 237.952 482.907 238.173C482.907 238.673 483.057 239.033 483.357 239.253C483.678 239.473 484.189 239.583 484.89 239.583H486.904L486.483 241.895H484.019C482.716 241.895 481.734 241.645 481.073 241.144C480.432 240.644 480.111 239.824 480.111 238.683C480.111 238.243 480.151 237.812 480.231 237.392L481.945 227.696H479.841L480.231 225.445H482.365L483.087 221.302H485.852L485.131 225.445H489.399L489.008 227.696H484.71L482.997 237.392Z" fill="#F9BF29"/>
<path d="M500.949 225.144C502.592 225.144 503.915 225.605 504.917 226.525C505.919 227.426 506.419 228.737 506.419 230.458C506.419 231.098 506.369 231.679 506.269 232.199L504.556 241.895H501.851L503.504 232.589C503.584 232.169 503.624 231.729 503.624 231.268C503.624 230.048 503.283 229.117 502.602 228.477C501.941 227.836 501.009 227.516 499.807 227.516C498.364 227.516 497.132 227.966 496.11 228.867C495.108 229.767 494.456 231.078 494.156 232.799V232.739L492.533 241.895H489.798L493.735 219.681H496.47L495.028 227.816C495.709 226.976 496.571 226.325 497.613 225.865C498.675 225.385 499.787 225.144 500.949 225.144Z" fill="#F9BF29"/>
<path d="M513.022 225.445L515.817 238.713L523.301 225.445H526.127L511.94 249.64H509.084L513.743 241.715L509.986 225.445H513.022Z" fill="#F9BF29"/>
<path d="M541.586 219.681L537.649 241.895H534.914L538.851 219.681H541.586Z" fill="#F9BF29"/>
<path d="M547.09 222.773C546.649 222.773 546.278 222.633 545.978 222.353C545.697 222.053 545.557 221.682 545.557 221.242C545.557 220.642 545.777 220.131 546.218 219.711C546.659 219.271 547.17 219.051 547.751 219.051C548.212 219.051 548.583 219.191 548.863 219.471C549.144 219.751 549.284 220.121 549.284 220.582C549.284 221.182 549.064 221.702 548.623 222.143C548.182 222.563 547.671 222.773 547.09 222.773ZM547.962 225.445L545.046 241.895H542.311L545.226 225.445H547.962Z" fill="#F9BF29"/>
<path d="M559.897 221.242C558.675 221.242 557.773 221.482 557.192 221.962C556.631 222.423 556.26 223.193 556.08 224.274L555.87 225.445H559.326L558.935 227.696H555.479L552.954 241.895H550.219L552.713 227.696H550.609L551 225.445H553.104L553.315 224.274C553.655 222.433 554.377 221.092 555.479 220.251C556.581 219.391 558.184 218.961 560.288 218.961L559.897 221.242Z" fill="#F9BF29"/>
<path d="M569.669 225.174C571.052 225.174 572.244 225.445 573.246 225.985C574.268 226.505 575.039 227.246 575.56 228.206C576.102 229.147 576.372 230.228 576.372 231.448C576.372 231.869 576.322 232.379 576.222 232.979C576.142 233.5 576.011 234.04 575.831 234.6H562.666C562.626 235.001 562.606 235.291 562.606 235.471C562.606 236.852 563.016 237.932 563.838 238.713C564.68 239.473 565.772 239.854 567.114 239.854C568.297 239.854 569.329 239.583 570.21 239.043C571.112 238.483 571.793 237.742 572.254 236.822H575.2C574.478 238.403 573.366 239.694 571.863 240.694C570.381 241.675 568.657 242.165 566.693 242.165C564.629 242.165 562.966 241.575 561.704 240.394C560.461 239.193 559.84 237.562 559.84 235.501C559.84 234.921 559.9 234.3 560.021 233.64C560.321 231.939 560.932 230.448 561.854 229.167C562.776 227.886 563.908 226.906 565.251 226.225C566.613 225.525 568.086 225.174 569.669 225.174ZM573.456 232.619C573.517 232.219 573.547 231.849 573.547 231.508C573.547 230.228 573.136 229.237 572.314 228.537C571.513 227.836 570.461 227.486 569.158 227.486C567.755 227.486 566.483 227.946 565.341 228.867C564.199 229.767 563.427 231.018 563.026 232.619H573.456Z" fill="#F9BF29"/>
</svg>
